<?xml version="1.0" encoding="UTF-8" standalone="no"?>
<!DOCTYPE svg PUBLIC "-//W3C//DTD SVG 1.1//EN"
 "http://www.w3.org/Graphics/SVG/1.1/DTD/svg11.dtd">
<!-- Generated by graphviz version 2.40.1 (20161225.0304)
 -->
<!-- Title: G Pages: 1 -->
<svg width="1167pt" height="223pt"
 viewBox="0.00 0.00 1166.77 222.60" xmlns="http://www.w3.org/2000/svg" xmlns:xlink="http://www.w3.org/1999/xlink">
<g id="graph0" class="graph" transform="scale(1 1) rotate(0) translate(4 218.6)">
<title>G</title>
<polygon fill="#ffffff" stroke="transparent" points="-4,4 -4,-218.6 1162.7651,-218.6 1162.7651,4 -4,4"/>
<g id="clust1" class="cluster">
<title>cluster0</title>
<polygon fill="#d3d3d3" stroke="#d3d3d3" stroke-dasharray="5,2" points="300.1399,-65 300.1399,-117 958.9703,-117 958.9703,-65 300.1399,-65"/>
</g>
<!-- u1 -->
<g id="node1" class="node">
<title>u1</title>
<polygon fill="none" stroke="#006400" stroke-dasharray="5,2" points="111.1107,-103.4262 68.6561,-103.4262 55.5369,-143.638 42.4177,-103.4262 -.0369,-103.4262 34.3096,-78.5738 21.1904,-38.362 55.5369,-63.2143 89.8834,-38.362 76.7642,-78.5738 111.1107,-103.4262"/>
<text text-anchor="middle" x="55.5369" y="-86.8" font-family="Times,serif" font-size="14.00" fill="#000000">User</text>
</g>
<!-- t1 -->
<g id="node2" class="node">
<title>t1</title>
<ellipse fill="none" stroke="#006400" stroke-dasharray="5,2" cx="196.1089" cy="-91" rx="48.0703" ry="18"/>
<text text-anchor="middle" x="196.1089" y="-86.8" font-family="Times,serif" font-size="14.00" fill="#000000">Telegram</text>
</g>
<!-- u1&#45;&gt;t1 -->
<g id="edge3" class="edge">
<title>u1&#45;&gt;t1</title>
<path fill="none" stroke="#006400" stroke-dasharray="5,2" d="M93.9488,-91C107.4888,-91 123.0309,-91 137.8396,-91"/>
<polygon fill="#006400" stroke="#006400" points="137.941,-94.5001 147.941,-91 137.9409,-87.5001 137.941,-94.5001"/>
</g>
<!-- gf -->
<g id="node3" class="node">
<title>gf</title>
<ellipse fill="none" stroke="#006400" stroke-dasharray="5,2" cx="384.354" cy="-91" rx="76.4289" ry="18"/>
<text text-anchor="middle" x="384.354" y="-86.8" font-family="Times,serif" font-size="14.00" fill="#000000">Google Function</text>
</g>
<!-- t1&#45;&gt;gf -->
<g id="edge4" class="edge">
<title>t1&#45;&gt;gf</title>
<path fill="none" stroke="#006400" stroke-dasharray="5,2" d="M244.5867,-91C260.8557,-91 279.5254,-91 297.8111,-91"/>
<polygon fill="#006400" stroke="#006400" points="297.9127,-94.5001 307.9126,-91 297.9126,-87.5001 297.9127,-94.5001"/>
<text text-anchor="middle" x="276.142" y="-95.2" font-family="Times,serif" font-size="14.00" fill="#000000">URL</text>
</g>
<!-- py -->
<g id="node4" class="node">
<title>py</title>
<ellipse fill="none" stroke="#006400" cx="640.4293" cy="-91" rx="63.7646" ry="18"/>
<text text-anchor="middle" x="640.4293" y="-86.8" font-family="Times,serif" font-size="14.00" fill="#000000">Python Script</text>
</g>
<!-- gf&#45;&gt;py -->
<g id="edge1" class="edge">
<title>gf&#45;&gt;py</title>
<path fill="none" stroke="#006400" stroke-dasharray="5,2" d="M460.8382,-91C494.2282,-91 533.2335,-91 566.3465,-91"/>
<polygon fill="#006400" stroke="#006400" points="566.4211,-94.5001 576.421,-91 566.421,-87.5001 566.4211,-94.5001"/>
</g>
<!-- fsize -->
<g id="node5" class="node">
<title>fsize</title>
<polygon fill="none" stroke="#006400" stroke-dasharray="5,2" points="887.1914,-109 823.6329,-91 887.1914,-73 950.75,-91 887.1914,-109"/>
<text text-anchor="middle" x="887.1914" y="-86.8" font-family="Times,serif" font-size="14.00" fill="#000000">File Size</text>
</g>
<!-- py&#45;&gt;fsize -->
<g id="edge2" class="edge">
<title>py&#45;&gt;fsize</title>
<path fill="none" stroke="#006400" stroke-dasharray="5,2" d="M704.619,-91C737.8918,-91 778.6912,-91 813.2761,-91"/>
<polygon fill="#006400" stroke="#006400" points="813.3232,-94.5001 823.3231,-91 813.3231,-87.5001 813.3232,-94.5001"/>
</g>
<!-- gdr -->
<g id="node6" class="node">
<title>gdr</title>
<ellipse fill="none" stroke="#006400" cx="1092.7603" cy="-143" rx="63.7261" ry="18"/>
<text text-anchor="middle" x="1092.7603" y="-138.8" font-family="Times,serif" font-size="14.00" fill="#000000">Google Drive</text>
</g>
<!-- py&#45;&gt;gdr -->
<g id="edge10" class="edge">
<title>py&#45;&gt;gdr</title>
<path fill="none" stroke="#cdad00" d="M695.9796,-99.9924C732.198,-105.6585 780.5302,-112.85 823.4125,-118 890.2145,-126.0227 966.6044,-132.8956 1020.929,-137.393"/>
<polygon fill="#cdad00" stroke="#cdad00" points="1020.896,-140.902 1031.1491,-138.2327 1021.4693,-133.9255 1020.896,-140.902"/>
<text text-anchor="middle" x="782.862" y="-119.2" font-family="Times,serif" font-size="14.00" fill="#000000">shortcut</text>
</g>
<!-- dload -->
<g id="node7" class="node">
<title>dload</title>
<ellipse fill="none" stroke="#006400" stroke-dasharray="5,2" cx="1092.7603" cy="-38" rx="66.0096" ry="18"/>
<text text-anchor="middle" x="1092.7603" y="-33.8" font-family="Times,serif" font-size="14.00" fill="#000000">Direct Upload</text>
</g>
<!-- py&#45;&gt;dload -->
<g id="edge9" class="edge">
<title>py&#45;&gt;dload</title>
<path fill="none" stroke="#cdad00" stroke-dasharray="5,2" d="M693.4124,-80.9398C714.2161,-77.2173 738.3329,-73.1823 760.3115,-70.2 848.8521,-58.1859 951.2513,-48.9686 1018.7475,-43.534"/>
<polygon fill="#cdad00" stroke="#cdad00" points="1019.1697,-47.0115 1028.8596,-42.7271 1018.6129,-40.0337 1019.1697,-47.0115"/>
<text text-anchor="middle" x="782.862" y="-74.2" font-family="Times,serif" font-size="14.00" fill="#000000">shortcut</text>
</g>
<!-- fsize&#45;&gt;gdr -->
<g id="edge5" class="edge">
<title>fsize&#45;&gt;gdr</title>
<path fill="none" stroke="#006400" stroke-dasharray="5,2" d="M930.9243,-96.6933C954.247,-100.2131 983.3043,-105.3737 1008.7555,-112.2 1021.3043,-115.5657 1034.6205,-120.0199 1046.863,-124.4921"/>
<polygon fill="#006400" stroke="#006400" points="1045.8234,-127.8399 1056.4159,-128.0621 1048.2738,-121.2828 1045.8234,-127.8399"/>
<text text-anchor="middle" x="988.8629" y="-116.2" font-family="Times,serif" font-size="14.00" fill="#000000">&gt;50mb</text>
</g>
<!-- fsize&#45;&gt;dload -->
<g id="edge7" class="edge">
<title>fsize&#45;&gt;dload</title>
<path fill="none" stroke="#006400" stroke-dasharray="5,2" d="M920.6771,-82.3667C951.4591,-74.4304 997.7625,-62.4924 1034.5871,-52.9983"/>
<polygon fill="#006400" stroke="#006400" points="1035.8919,-56.2764 1044.7014,-50.3906 1034.1443,-49.4981 1035.8919,-56.2764"/>
<text text-anchor="middle" x="988.8629" y="-73.2" font-family="Times,serif" font-size="14.00" fill="#000000">&lt;50mb</text>
</g>
<!-- gdr&#45;&gt;u1 -->
<g id="edge6" class="edge">
<title>gdr&#45;&gt;u1</title>
<path fill="none" stroke="#006400" stroke-dasharray="5,2" d="M1048.2844,-156.0774C1006.9403,-167.0695 943.4466,-181 887.1914,-181 196.1089,-181 196.1089,-181 196.1089,-181 146.2607,-181 99.9327,-140.3633 74.9016,-113.7017"/>
<polygon fill="#006400" stroke="#006400" points="77.4505,-111.3024 68.1285,-106.2673 72.2759,-116.0167 77.4505,-111.3024"/>
<text text-anchor="middle" x="537.5576" y="-202" font-family="Times,serif" font-size="14.00" fill="#000000">Link to</text>
<text text-anchor="middle" x="537.5576" y="-185.2" font-family="Times,serif" font-size="14.00" fill="#000000">GDrive</text>
</g>
<!-- dload&#45;&gt;u1 -->
<g id="edge8" class="edge">
<title>dload&#45;&gt;u1</title>
<path fill="none" stroke="#006400" stroke-dasharray="5,2" d="M1047.4814,-24.7094C1006.1213,-13.7513 943.0837,0 887.1914,0 196.1089,0 196.1089,0 196.1089,0 155.2278,0 116.8443,-27.4568 90.5493,-52.2068"/>
<polygon fill="#006400" stroke="#006400" points="87.8531,-49.9467 83.125,-59.428 92.7338,-54.9646 87.8531,-49.9467"/>
<text text-anchor="middle" x="537.5576" y="-21" font-family="Times,serif" font-size="14.00" fill="#000000">Audio</text>
<text text-anchor="middle" x="537.5576" y="-4.2" font-family="Times,serif" font-size="14.00" fill="#000000">File</text>
</g>
</g>
</svg>
