<?xml version="1.0" encoding="UTF-8" standalone="no"?>
<!DOCTYPE svg PUBLIC "-//W3C//DTD SVG 1.1//EN"
 "http://www.w3.org/Graphics/SVG/1.1/DTD/svg11.dtd">
<!-- Generated by graphviz version 2.40.1 (20161225.0304)
 -->
<!-- Title: G Pages: 1 -->
<svg width="1167pt" height="185pt"
 viewBox="0.00 0.00 1166.77 184.60" xmlns="http://www.w3.org/2000/svg" xmlns:xlink="http://www.w3.org/1999/xlink">
<g id="graph0" class="graph" transform="scale(1 1) rotate(0) translate(4 180.6)">
<title>G</title>
<polygon fill="#ffffff" stroke="transparent" points="-4,4 -4,-180.6 1162.7651,-180.6 1162.7651,4 -4,4"/>
<g id="clust1" class="cluster">
<title>cluster0</title>
<polygon fill="#d3d3d3" stroke="#d3d3d3" stroke-dasharray="5,2" points="300.1399,-58 300.1399,-110 958.9703,-110 958.9703,-58 300.1399,-58"/>
</g>
<!-- u1 -->
<g id="node1" class="node">
<title>u1</title>
<polygon fill="none" stroke="#006400" stroke-dasharray="5,2" points="111.1107,-96.4262 68.6561,-96.4262 55.5369,-136.638 42.4177,-96.4262 -.0369,-96.4262 34.3096,-71.5738 21.1904,-31.362 55.5369,-56.2143 89.8834,-31.362 76.7642,-71.5738 111.1107,-96.4262"/>
<text text-anchor="middle" x="55.5369" y="-79.8" font-family="Times,serif" font-size="14.00" fill="#000000">User</text>
</g>
<!-- t1 -->
<g id="node2" class="node">
<title>t1</title>
<ellipse fill="none" stroke="#006400" stroke-dasharray="5,2" cx="196.1089" cy="-84" rx="48.0703" ry="18"/>
<text text-anchor="middle" x="196.1089" y="-79.8" font-family="Times,serif" font-size="14.00" fill="#000000">Telegram</text>
</g>
<!-- u1&#45;&gt;t1 -->
<g id="edge3" class="edge">
<title>u1&#45;&gt;t1</title>
<path fill="none" stroke="#006400" stroke-dasharray="5,2" d="M93.9488,-84C107.4888,-84 123.0309,-84 137.8396,-84"/>
<polygon fill="#006400" stroke="#006400" points="137.941,-87.5001 147.941,-84 137.9409,-80.5001 137.941,-87.5001"/>
</g>
<!-- gf -->
<g id="node3" class="node">
<title>gf</title>
<ellipse fill="none" stroke="#006400" stroke-dasharray="5,2" cx="384.354" cy="-84" rx="76.4289" ry="18"/>
<text text-anchor="middle" x="384.354" y="-79.8" font-family="Times,serif" font-size="14.00" fill="#000000">Google Function</text>
</g>
<!-- t1&#45;&gt;gf -->
<g id="edge4" class="edge">
<title>t1&#45;&gt;gf</title>
<path fill="none" stroke="#006400" stroke-dasharray="5,2" d="M244.5867,-84C260.8557,-84 279.5254,-84 297.8111,-84"/>
<polygon fill="#006400" stroke="#006400" points="297.9127,-87.5001 307.9126,-84 297.9126,-80.5001 297.9127,-87.5001"/>
<text text-anchor="middle" x="276.142" y="-88.2" font-family="Times,serif" font-size="14.00" fill="#000000">URL</text>
</g>
<!-- py -->
<g id="node4" class="node">
<title>py</title>
<ellipse fill="none" stroke="#006400" stroke-dasharray="5,2" cx="640.4293" cy="-84" rx="63.7646" ry="18"/>
<text text-anchor="middle" x="640.4293" y="-79.8" font-family="Times,serif" font-size="14.00" fill="#000000">Python Script</text>
</g>
<!-- gf&#45;&gt;py -->
<g id="edge1" class="edge">
<title>gf&#45;&gt;py</title>
<path fill="none" stroke="#006400" stroke-dasharray="5,2" d="M460.8382,-84C494.2282,-84 533.2335,-84 566.3465,-84"/>
<polygon fill="#006400" stroke="#006400" points="566.4211,-87.5001 576.421,-84 566.421,-80.5001 566.4211,-87.5001"/>
</g>
<!-- fsize -->
<g id="node5" class="node">
<title>fsize</title>
<polygon fill="none" stroke="#006400" stroke-dasharray="5,2" points="887.1914,-102 823.6329,-84 887.1914,-66 950.75,-84 887.1914,-102"/>
<text text-anchor="middle" x="887.1914" y="-79.8" font-family="Times,serif" font-size="14.00" fill="#000000">File Size</text>
</g>
<!-- py&#45;&gt;fsize -->
<g id="edge2" class="edge">
<title>py&#45;&gt;fsize</title>
<path fill="none" stroke="#006400" stroke-dasharray="5,2" d="M704.619,-84C737.8918,-84 778.6912,-84 813.2761,-84"/>
<polygon fill="#006400" stroke="#006400" points="813.3232,-87.5001 823.3231,-84 813.3231,-80.5001 813.3232,-87.5001"/>
</g>
<!-- dload -->
<g id="node7" class="node">
<title>dload</title>
<ellipse fill="none" stroke="#006400" stroke-dasharray="5,2" cx="1092.7603" cy="-38" rx="66.0096" ry="18"/>
<text text-anchor="middle" x="1092.7603" y="-33.8" font-family="Times,serif" font-size="14.00" fill="#000000">Direct Upload</text>
</g>
<!-- py&#45;&gt;dload -->
<g id="edge9" class="edge">
<title>py&#45;&gt;dload</title>
<path fill="none" stroke="#cdad00" stroke-dasharray="5,2" d="M693.4124,-73.9398C714.2161,-70.2173 738.3329,-66.1823 760.3115,-63.2 848.0105,-51.3001 949.5443,-44.6254 1017.1018,-41.1794"/>
<polygon fill="#cdad00" stroke="#cdad00" points="1017.4177,-44.6681 1027.2308,-40.6739 1017.0688,-37.6768 1017.4177,-44.6681"/>
<text text-anchor="middle" x="782.862" y="-67.2" font-family="Times,serif" font-size="14.00" fill="#000000">shortcut</text>
</g>
<!-- gdr -->
<g id="node6" class="node">
<title>gdr</title>
<ellipse fill="none" stroke="#006400" stroke-dasharray="5,2" cx="1092.7603" cy="-127" rx="63.7261" ry="18"/>
<text text-anchor="middle" x="1092.7603" y="-122.8" font-family="Times,serif" font-size="14.00" fill="#000000">Google Drive</text>
</g>
<!-- fsize&#45;&gt;gdr -->
<g id="edge5" class="edge">
<title>fsize&#45;&gt;gdr</title>
<path fill="none" stroke="#006400" stroke-dasharray="5,2" d="M923.943,-91.6875C953.6893,-97.9097 996.2313,-106.8085 1031.1664,-114.1161"/>
<polygon fill="#006400" stroke="#006400" points="1030.7652,-117.6078 1041.27,-116.2295 1032.1984,-110.7561 1030.7652,-117.6078"/>
<text text-anchor="middle" x="988.8629" y="-113.2" font-family="Times,serif" font-size="14.00" fill="#000000">&gt;30mb</text>
</g>
<!-- fsize&#45;&gt;dload -->
<g id="edge7" class="edge">
<title>fsize&#45;&gt;dload</title>
<path fill="none" stroke="#006400" stroke-dasharray="5,2" d="M922.9988,-75.9874C952.9658,-69.2817 996.3863,-59.5656 1031.812,-51.6384"/>
<polygon fill="#006400" stroke="#006400" points="1032.5796,-55.0532 1041.574,-49.4539 1031.051,-48.2222 1032.5796,-55.0532"/>
<text text-anchor="middle" x="988.8629" y="-69.2" font-family="Times,serif" font-size="14.00" fill="#000000">&lt;30mb</text>
</g>
<!-- gdr&#45;&gt;u1 -->
<g id="edge6" class="edge">
<title>gdr&#45;&gt;u1</title>
<path fill="none" stroke="#006400" stroke-dasharray="5,2" d="M1033.9286,-134.0178C992.8728,-138.3168 936.7702,-143 887.1914,-143 196.1089,-143 196.1089,-143 196.1089,-143 153.3063,-143 108.4847,-119.4553 81.2759,-102.113"/>
<polygon fill="#006400" stroke="#006400" points="83.0314,-99.0786 72.7521,-96.5124 79.1875,-104.9288 83.0314,-99.0786"/>
<text text-anchor="middle" x="537.5576" y="-164" font-family="Times,serif" font-size="14.00" fill="#000000">Link to</text>
<text text-anchor="middle" x="537.5576" y="-147.2" font-family="Times,serif" font-size="14.00" fill="#000000">GDrive</text>
</g>
<!-- dload&#45;&gt;u1 -->
<g id="edge8" class="edge">
<title>dload&#45;&gt;u1</title>
<path fill="none" stroke="#006400" stroke-dasharray="5,2" d="M1047.4814,-24.7094C1006.1213,-13.7513 943.0837,0 887.1914,0 196.1089,0 196.1089,0 196.1089,0 155.2251,0 115.9159,-26.5061 89.3131,-49.7393"/>
<polygon fill="#006400" stroke="#006400" points="86.9022,-47.2004 81.8171,-56.4953 91.5886,-52.4002 86.9022,-47.2004"/>
<text text-anchor="middle" x="537.5576" y="-21" font-family="Times,serif" font-size="14.00" fill="#000000">Audio</text>
<text text-anchor="middle" x="537.5576" y="-4.2" font-family="Times,serif" font-size="14.00" fill="#000000">File</text>
</g>
</g>
</svg>
